# MagicaVoxel @ Ephtracy

# group
g Bot1-8

# material
mtllib Bot1-8.mtl
usemtl palette

# normals
vn -1 0 0
vn 1 0 0
vn 0 0 1
vn 0 0 -1
vn 0 -1 0
vn 0 1 0

# texcoords
vt 0.302734 0.5
vt 0.806641 0.5
vt 0.845703 0.5
vt 0.896484 0.5
vt 0.974609 0.5

# verts
v -8 5 5
v -8 5 1
v -8 5 -1
v -8 5 -5
v -8 11 5
v -8 11 1
v -8 11 -1
v -8 11 -5
v -7 3 5
v -7 3 1
v -7 3 -1
v -7 3 -5
v -7 5 5
v -7 5 1
v -7 5 -1
v -7 5 -5
v -7 11 5
v -7 11 1
v -7 11 -1
v -7 11 -5
v -7 13 5
v -7 13 1
v -7 13 -1
v -7 13 -5
v -6 2 5
v -6 2 1
v -6 2 -1
v -6 2 -5
v -6 3 5
v -6 3 1
v -6 3 -1
v -6 3 -5
v -6 13 5
v -6 13 1
v -6 13 -1
v -6 13 -5
v -6 14 5
v -6 14 1
v -6 14 -1
v -6 14 -5
v -5 1 5
v -5 1 1
v -5 1 -1
v -5 1 -5
v -5 2 5
v -5 2 1
v -5 2 -1
v -5 2 -5
v -5 6 1
v -5 6 -1
v -5 10 1
v -5 10 -1
v -5 14 5
v -5 14 1
v -5 14 -1
v -5 14 -5
v -5 15 5
v -5 15 1
v -5 15 -1
v -5 15 -5
v -4 4 1
v -4 4 -1
v -4 6 1
v -4 6 -1
v -4 6 -2
v -4 6 -5
v -4 10 1
v -4 10 -1
v -4 10 -2
v -4 10 -5
v -4 12 1
v -4 12 -1
v -3 0 5
v -3 0 1
v -3 0 -1
v -3 0 -5
v -3 1 5
v -3 1 1
v -3 1 -1
v -3 1 -5
v -3 5 -2
v -3 5 -5
v -3 6 -2
v -3 6 -5
v -3 10 -2
v -3 10 -5
v -3 11 -2
v -3 11 -5
v -3 15 5
v -3 15 1
v -3 15 -1
v -3 15 -5
v -3 16 5
v -3 16 1
v -3 16 -1
v -3 16 -5
v -2 3 1
v -2 3 -1
v -2 4 1
v -2 4 -1
v -2 4 -2
v -2 4 -5
v -2 5 -2
v -2 5 -5
v -2 11 -2
v -2 11 -5
v -2 12 1
v -2 12 -1
v -2 12 -2
v -2 12 -5
v -2 13 1
v -2 13 -1
v 2 2 -2
v 2 2 -5
v 2 3 -2
v 2 3 -5
v 2 13 -2
v 2 13 -5
v 2 14 -2
v 2 14 -5
v 4 3 -2
v 4 3 -5
v 4 4 -2
v 4 4 -5
v 4 12 -2
v 4 12 -5
v 4 13 -2
v 4 13 -5
v 5 4 -2
v 5 4 -5
v 5 6 -2
v 5 6 -5
v 5 10 -2
v 5 10 -5
v 5 12 -2
v 5 12 -5
v 6 6 -2
v 6 6 -5
v 6 10 -2
v 6 10 -5
v -6 6 -2
v -6 6 -5
v -6 10 -2
v -6 10 -5
v -5 4 -2
v -5 4 -5
v -5 6 -2
v -5 6 -5
v -5 10 -2
v -5 10 -5
v -5 12 -2
v -5 12 -5
v -4 3 -2
v -4 3 -5
v -4 4 -2
v -4 4 -5
v -4 12 -2
v -4 12 -5
v -4 13 -2
v -4 13 -5
v -2 2 -2
v -2 2 -5
v -2 3 -2
v -2 3 -5
v -2 13 -2
v -2 13 -5
v -2 14 -2
v -2 14 -5
v 2 3 1
v 2 3 -1
v 2 4 1
v 2 4 -1
v 2 4 -2
v 2 4 -5
v 2 5 -2
v 2 5 -5
v 2 11 -2
v 2 11 -5
v 2 12 1
v 2 12 -1
v 2 12 -2
v 2 12 -5
v 2 13 1
v 2 13 -1
v 3 0 5
v 3 0 1
v 3 0 -1
v 3 0 -5
v 3 1 5
v 3 1 1
v 3 1 -1
v 3 1 -5
v 3 5 -2
v 3 5 -5
v 3 6 -2
v 3 6 -5
v 3 10 -2
v 3 10 -5
v 3 11 -2
v 3 11 -5
v 3 15 5
v 3 15 1
v 3 15 -1
v 3 15 -5
v 3 16 5
v 3 16 1
v 3 16 -1
v 3 16 -5
v 4 4 1
v 4 4 -1
v 4 6 1
v 4 6 -1
v 4 6 -2
v 4 6 -5
v 4 10 1
v 4 10 -1
v 4 10 -2
v 4 10 -5
v 4 12 1
v 4 12 -1
v 5 1 5
v 5 1 1
v 5 1 -1
v 5 1 -5
v 5 2 5
v 5 2 1
v 5 2 -1
v 5 2 -5
v 5 6 1
v 5 6 -1
v 5 10 1
v 5 10 -1
v 5 14 5
v 5 14 1
v 5 14 -1
v 5 14 -5
v 5 15 5
v 5 15 1
v 5 15 -1
v 5 15 -5
v 6 2 5
v 6 2 1
v 6 2 -1
v 6 2 -5
v 6 3 5
v 6 3 1
v 6 3 -1
v 6 3 -5
v 6 13 5
v 6 13 1
v 6 13 -1
v 6 13 -5
v 6 14 5
v 6 14 1
v 6 14 -1
v 6 14 -5
v 7 3 5
v 7 3 1
v 7 3 -1
v 7 3 -5
v 7 5 5
v 7 5 1
v 7 5 -1
v 7 5 -5
v 7 11 5
v 7 11 1
v 7 11 -1
v 7 11 -5
v 7 13 5
v 7 13 1
v 7 13 -1
v 7 13 -5
v 8 5 5
v 8 5 1
v 8 5 -1
v 8 5 -5
v 8 11 5
v 8 11 1
v 8 11 -1
v 8 11 -5
v -8 5 5
v -8 11 5
v -7 3 5
v -7 5 5
v -7 11 5
v -7 13 5
v -6 2 5
v -6 3 5
v -6 13 5
v -6 14 5
v -5 1 5
v -5 2 5
v -5 14 5
v -5 15 5
v -3 0 5
v -3 1 5
v -3 15 5
v -3 16 5
v 3 0 5
v 3 1 5
v 3 15 5
v 3 16 5
v 5 1 5
v 5 2 5
v 5 14 5
v 5 15 5
v 6 2 5
v 6 3 5
v 6 13 5
v 6 14 5
v 7 3 5
v 7 5 5
v 7 11 5
v 7 13 5
v 8 5 5
v 8 11 5
v -8 5 -1
v -8 11 -1
v -7 3 -1
v -7 5 -1
v -7 11 -1
v -7 13 -1
v -6 2 -1
v -6 3 -1
v -6 13 -1
v -6 14 -1
v -5 1 -1
v -5 2 -1
v -5 6 -1
v -5 10 -1
v -5 14 -1
v -5 15 -1
v -4 4 -1
v -4 6 -1
v -4 10 -1
v -4 12 -1
v -3 0 -1
v -3 1 -1
v -3 15 -1
v -3 16 -1
v -2 3 -1
v -2 4 -1
v -2 12 -1
v -2 13 -1
v 2 3 -1
v 2 4 -1
v 2 12 -1
v 2 13 -1
v 3 0 -1
v 3 1 -1
v 3 15 -1
v 3 16 -1
v 4 4 -1
v 4 6 -1
v 4 10 -1
v 4 12 -1
v 5 1 -1
v 5 2 -1
v 5 6 -1
v 5 10 -1
v 5 14 -1
v 5 15 -1
v 6 2 -1
v 6 3 -1
v 6 13 -1
v 6 14 -1
v 7 3 -1
v 7 5 -1
v 7 11 -1
v 7 13 -1
v 8 5 -1
v 8 11 -1
v -8 5 1
v -8 11 1
v -7 3 1
v -7 5 1
v -7 11 1
v -7 13 1
v -6 2 1
v -6 3 1
v -6 13 1
v -6 14 1
v -5 1 1
v -5 2 1
v -5 6 1
v -5 10 1
v -5 14 1
v -5 15 1
v -4 4 1
v -4 6 1
v -4 10 1
v -4 12 1
v -3 0 1
v -3 1 1
v -3 15 1
v -3 16 1
v -2 3 1
v -2 4 1
v -2 12 1
v -2 13 1
v 2 3 1
v 2 4 1
v 2 12 1
v 2 13 1
v 3 0 1
v 3 1 1
v 3 15 1
v 3 16 1
v 4 4 1
v 4 6 1
v 4 10 1
v 4 12 1
v 5 1 1
v 5 2 1
v 5 6 1
v 5 10 1
v 5 14 1
v 5 15 1
v 6 2 1
v 6 3 1
v 6 13 1
v 6 14 1
v 7 3 1
v 7 5 1
v 7 11 1
v 7 13 1
v 8 5 1
v 8 11 1
v -6 6 -2
v -6 10 -2
v -5 4 -2
v -5 6 -2
v -5 10 -2
v -5 12 -2
v -4 3 -2
v -4 4 -2
v -4 6 -2
v -4 10 -2
v -4 12 -2
v -4 13 -2
v -3 5 -2
v -3 6 -2
v -3 10 -2
v -3 11 -2
v -2 2 -2
v -2 3 -2
v -2 4 -2
v -2 5 -2
v -2 11 -2
v -2 12 -2
v -2 13 -2
v -2 14 -2
v 2 2 -2
v 2 3 -2
v 2 4 -2
v 2 5 -2
v 2 11 -2
v 2 12 -2
v 2 13 -2
v 2 14 -2
v 3 5 -2
v 3 6 -2
v 3 10 -2
v 3 11 -2
v 4 3 -2
v 4 4 -2
v 4 6 -2
v 4 10 -2
v 4 12 -2
v 4 13 -2
v 5 4 -2
v 5 6 -2
v 5 10 -2
v 5 12 -2
v 6 6 -2
v 6 10 -2
v -8 5 -5
v -8 11 -5
v -7 3 -5
v -7 5 -5
v -7 11 -5
v -7 13 -5
v -6 2 -5
v -6 3 -5
v -6 6 -5
v -6 10 -5
v -6 13 -5
v -6 14 -5
v -5 1 -5
v -5 2 -5
v -5 4 -5
v -5 6 -5
v -5 10 -5
v -5 12 -5
v -5 14 -5
v -5 15 -5
v -4 3 -5
v -4 4 -5
v -4 6 -5
v -4 10 -5
v -4 12 -5
v -4 13 -5
v -3 0 -5
v -3 1 -5
v -3 5 -5
v -3 6 -5
v -3 10 -5
v -3 11 -5
v -3 15 -5
v -3 16 -5
v -2 2 -5
v -2 3 -5
v -2 4 -5
v -2 5 -5
v -2 6 -5
v -2 8 -5
v -2 10 -5
v -2 11 -5
v -2 12 -5
v -2 13 -5
v -2 14 -5
v 0 6 -5
v 0 8 -5
v 0 10 -5
v 2 2 -5
v 2 3 -5
v 2 4 -5
v 2 5 -5
v 2 6 -5
v 2 8 -5
v 2 10 -5
v 2 11 -5
v 2 12 -5
v 2 13 -5
v 2 14 -5
v 3 0 -5
v 3 1 -5
v 3 5 -5
v 3 6 -5
v 3 10 -5
v 3 11 -5
v 3 15 -5
v 3 16 -5
v 4 3 -5
v 4 4 -5
v 4 6 -5
v 4 10 -5
v 4 12 -5
v 4 13 -5
v 5 1 -5
v 5 2 -5
v 5 4 -5
v 5 6 -5
v 5 10 -5
v 5 12 -5
v 5 14 -5
v 5 15 -5
v 6 2 -5
v 6 3 -5
v 6 6 -5
v 6 10 -5
v 6 13 -5
v 6 14 -5
v 7 3 -5
v 7 5 -5
v 7 11 -5
v 7 13 -5
v 8 5 -5
v 8 11 -5
v -3 0 5
v 3 0 5
v -3 0 1
v 3 0 1
v -3 0 -1
v 3 0 -1
v -3 0 -5
v 3 0 -5
v -5 1 5
v -3 1 5
v 3 1 5
v 5 1 5
v -5 1 1
v -3 1 1
v 3 1 1
v 5 1 1
v -5 1 -1
v -3 1 -1
v 3 1 -1
v 5 1 -1
v -5 1 -5
v -3 1 -5
v 3 1 -5
v 5 1 -5
v -6 2 5
v -5 2 5
v 5 2 5
v 6 2 5
v -6 2 1
v -5 2 1
v 5 2 1
v 6 2 1
v -6 2 -1
v -5 2 -1
v 5 2 -1
v 6 2 -1
v -6 2 -5
v -5 2 -5
v 5 2 -5
v 6 2 -5
v -7 3 5
v -6 3 5
v 6 3 5
v 7 3 5
v -7 3 1
v -6 3 1
v -2 3 1
v 2 3 1
v 6 3 1
v 7 3 1
v -7 3 -1
v -6 3 -1
v -2 3 -1
v 2 3 -1
v 6 3 -1
v 7 3 -1
v -7 3 -5
v -6 3 -5
v 6 3 -5
v 7 3 -5
v -4 4 1
v -2 4 1
v 2 4 1
v 4 4 1
v -4 4 -1
v -2 4 -1
v 2 4 -1
v 4 4 -1
v -2 4 -2
v 2 4 -2
v -2 4 -5
v 2 4 -5
v -8 5 5
v -7 5 5
v 7 5 5
v 8 5 5
v -8 5 1
v -7 5 1
v 7 5 1
v 8 5 1
v -8 5 -1
v -7 5 -1
v 7 5 -1
v 8 5 -1
v -3 5 -2
v -2 5 -2
v 2 5 -2
v 3 5 -2
v -8 5 -5
v -7 5 -5
v -3 5 -5
v -2 5 -5
v 2 5 -5
v 3 5 -5
v 7 5 -5
v 8 5 -5
v -5 6 1
v -4 6 1
v 4 6 1
v 5 6 1
v -5 6 -1
v -4 6 -1
v 4 6 -1
v 5 6 -1
v -4 6 -2
v -3 6 -2
v 3 6 -2
v 4 6 -2
v -4 6 -5
v -3 6 -5
v 3 6 -5
v 4 6 -5
v -6 10 -2
v -5 10 -2
v 5 10 -2
v 6 10 -2
v -6 10 -5
v -5 10 -5
v 5 10 -5
v 6 10 -5
v -5 12 -2
v -4 12 -2
v 4 12 -2
v 5 12 -2
v -5 12 -5
v -4 12 -5
v 4 12 -5
v 5 12 -5
v -4 13 -2
v -2 13 -2
v 2 13 -2
v 4 13 -2
v -4 13 -5
v -2 13 -5
v 2 13 -5
v 4 13 -5
v -2 14 -2
v 2 14 -2
v -2 14 -5
v 2 14 -5
v -2 2 -2
v 2 2 -2
v -2 2 -5
v 2 2 -5
v -4 3 -2
v -2 3 -2
v 2 3 -2
v 4 3 -2
v -4 3 -5
v -2 3 -5
v 2 3 -5
v 4 3 -5
v -5 4 -2
v -4 4 -2
v 4 4 -2
v 5 4 -2
v -5 4 -5
v -4 4 -5
v 4 4 -5
v 5 4 -5
v -6 6 -2
v -5 6 -2
v 5 6 -2
v 6 6 -2
v -6 6 -5
v -5 6 -5
v 5 6 -5
v 6 6 -5
v -5 10 1
v -4 10 1
v 4 10 1
v 5 10 1
v -5 10 -1
v -4 10 -1
v 4 10 -1
v 5 10 -1
v -4 10 -2
v -3 10 -2
v 3 10 -2
v 4 10 -2
v -4 10 -5
v -3 10 -5
v 3 10 -5
v 4 10 -5
v -8 11 5
v -7 11 5
v 7 11 5
v 8 11 5
v -8 11 1
v -7 11 1
v 7 11 1
v 8 11 1
v -8 11 -1
v -7 11 -1
v 7 11 -1
v 8 11 -1
v -3 11 -2
v -2 11 -2
v 2 11 -2
v 3 11 -2
v -8 11 -5
v -7 11 -5
v -3 11 -5
v -2 11 -5
v 2 11 -5
v 3 11 -5
v 7 11 -5
v 8 11 -5
v -4 12 1
v -2 12 1
v 2 12 1
v 4 12 1
v -4 12 -1
v -2 12 -1
v 2 12 -1
v 4 12 -1
v -2 12 -2
v 2 12 -2
v -2 12 -5
v 2 12 -5
v -7 13 5
v -6 13 5
v 6 13 5
v 7 13 5
v -7 13 1
v -6 13 1
v -2 13 1
v 2 13 1
v 6 13 1
v 7 13 1
v -7 13 -1
v -6 13 -1
v -2 13 -1
v 2 13 -1
v 6 13 -1
v 7 13 -1
v -7 13 -5
v -6 13 -5
v 6 13 -5
v 7 13 -5
v -6 14 5
v -5 14 5
v 5 14 5
v 6 14 5
v -6 14 1
v -5 14 1
v 5 14 1
v 6 14 1
v -6 14 -1
v -5 14 -1
v 5 14 -1
v 6 14 -1
v -6 14 -5
v -5 14 -5
v 5 14 -5
v 6 14 -5
v -5 15 5
v -3 15 5
v 3 15 5
v 5 15 5
v -5 15 1
v -3 15 1
v 3 15 1
v 5 15 1
v -5 15 -1
v -3 15 -1
v 3 15 -1
v 5 15 -1
v -5 15 -5
v -3 15 -5
v 3 15 -5
v 5 15 -5
v -3 16 5
v 3 16 5
v -3 16 1
v 3 16 1
v -3 16 -1
v 3 16 -1
v -3 16 -5
v 3 16 -5

# faces
f 5/5/1 2/5/1 1/5/1
f 6/5/1 2/5/1 5/5/1
f 7/5/1 4/5/1 3/5/1
f 8/5/1 4/5/1 7/5/1
f 13/5/1 10/5/1 9/5/1
f 14/5/1 10/5/1 13/5/1
f 15/5/1 12/5/1 11/5/1
f 16/5/1 12/5/1 15/5/1
f 21/5/1 18/5/1 17/5/1
f 22/5/1 18/5/1 21/5/1
f 23/5/1 20/5/1 19/5/1
f 24/5/1 20/5/1 23/5/1
f 29/5/1 26/5/1 25/5/1
f 30/5/1 26/5/1 29/5/1
f 31/5/1 28/5/1 27/5/1
f 32/5/1 28/5/1 31/5/1
f 37/5/1 34/5/1 33/5/1
f 38/5/1 34/5/1 37/5/1
f 39/5/1 36/5/1 35/5/1
f 40/5/1 36/5/1 39/5/1
f 45/5/1 42/5/1 41/5/1
f 46/5/1 42/5/1 45/5/1
f 47/5/1 44/5/1 43/5/1
f 48/5/1 44/5/1 47/5/1
f 51/5/1 50/5/1 49/5/1
f 52/5/1 50/5/1 51/5/1
f 57/5/1 54/5/1 53/5/1
f 58/5/1 54/5/1 57/5/1
f 59/5/1 56/5/1 55/5/1
f 60/5/1 56/5/1 59/5/1
f 63/1/1 62/1/1 61/1/1
f 64/1/1 62/1/1 63/1/1
f 69/5/1 66/5/1 65/5/1
f 70/5/1 66/5/1 69/5/1
f 71/4/1 68/4/1 67/4/1
f 72/4/1 68/4/1 71/4/1
f 77/5/1 74/5/1 73/5/1
f 78/5/1 74/5/1 77/5/1
f 79/5/1 76/5/1 75/5/1
f 80/5/1 76/5/1 79/5/1
f 83/5/1 82/5/1 81/5/1
f 84/5/1 82/5/1 83/5/1
f 87/5/1 86/5/1 85/5/1
f 88/5/1 86/5/1 87/5/1
f 93/5/1 90/5/1 89/5/1
f 94/5/1 90/5/1 93/5/1
f 95/5/1 92/5/1 91/5/1
f 96/5/1 92/5/1 95/5/1
f 99/5/1 98/5/1 97/5/1
f 100/5/1 98/5/1 99/5/1
f 103/5/1 102/5/1 101/5/1
f 104/5/1 102/5/1 103/5/1
f 109/5/1 106/5/1 105/5/1
f 110/5/1 106/5/1 109/5/1
f 111/5/1 108/5/1 107/5/1
f 112/5/1 108/5/1 111/5/1
f 115/5/1 114/5/1 113/5/1
f 116/5/1 114/5/1 115/5/1
f 119/5/1 118/5/1 117/5/1
f 120/5/1 118/5/1 119/5/1
f 123/5/1 122/5/1 121/5/1
f 124/5/1 122/5/1 123/5/1
f 127/5/1 126/5/1 125/5/1
f 128/5/1 126/5/1 127/5/1
f 131/5/1 130/5/1 129/5/1
f 132/5/1 130/5/1 131/5/1
f 135/5/1 134/5/1 133/5/1
f 136/5/1 134/5/1 135/5/1
f 139/5/1 138/5/1 137/5/1
f 140/5/1 138/5/1 139/5/1
f 141/5/2 142/5/2 143/5/2
f 143/5/2 142/5/2 144/5/2
f 145/5/2 146/5/2 147/5/2
f 147/5/2 146/5/2 148/5/2
f 149/5/2 150/5/2 151/5/2
f 151/5/2 150/5/2 152/5/2
f 153/5/2 154/5/2 155/5/2
f 155/5/2 154/5/2 156/5/2
f 157/5/2 158/5/2 159/5/2
f 159/5/2 158/5/2 160/5/2
f 161/5/2 162/5/2 163/5/2
f 163/5/2 162/5/2 164/5/2
f 165/5/2 166/5/2 167/5/2
f 167/5/2 166/5/2 168/5/2
f 169/5/2 170/5/2 171/5/2
f 171/5/2 170/5/2 172/5/2
f 173/5/2 174/5/2 175/5/2
f 175/5/2 174/5/2 176/5/2
f 177/5/2 178/5/2 181/5/2
f 181/5/2 178/5/2 182/5/2
f 179/5/2 180/5/2 183/5/2
f 183/5/2 180/5/2 184/5/2
f 185/5/2 186/5/2 189/5/2
f 189/5/2 186/5/2 190/5/2
f 187/5/2 188/5/2 191/5/2
f 191/5/2 188/5/2 192/5/2
f 193/5/2 194/5/2 195/5/2
f 195/5/2 194/5/2 196/5/2
f 197/5/2 198/5/2 199/5/2
f 199/5/2 198/5/2 200/5/2
f 201/5/2 202/5/2 205/5/2
f 205/5/2 202/5/2 206/5/2
f 203/5/2 204/5/2 207/5/2
f 207/5/2 204/5/2 208/5/2
f 209/2/2 210/2/2 211/2/2
f 211/2/2 210/2/2 212/2/2
f 213/5/2 214/5/2 217/5/2
f 217/5/2 214/5/2 218/5/2
f 215/3/2 216/3/2 219/3/2
f 219/3/2 216/3/2 220/3/2
f 221/5/2 222/5/2 225/5/2
f 225/5/2 222/5/2 226/5/2
f 223/5/2 224/5/2 227/5/2
f 227/5/2 224/5/2 228/5/2
f 229/5/2 230/5/2 231/5/2
f 231/5/2 230/5/2 232/5/2
f 233/5/2 234/5/2 237/5/2
f 237/5/2 234/5/2 238/5/2
f 235/5/2 236/5/2 239/5/2
f 239/5/2 236/5/2 240/5/2
f 241/5/2 242/5/2 245/5/2
f 245/5/2 242/5/2 246/5/2
f 243/5/2 244/5/2 247/5/2
f 247/5/2 244/5/2 248/5/2
f 249/5/2 250/5/2 253/5/2
f 253/5/2 250/5/2 254/5/2
f 251/5/2 252/5/2 255/5/2
f 255/5/2 252/5/2 256/5/2
f 257/5/2 258/5/2 261/5/2
f 261/5/2 258/5/2 262/5/2
f 259/5/2 260/5/2 263/5/2
f 263/5/2 260/5/2 264/5/2
f 265/5/2 266/5/2 269/5/2
f 269/5/2 266/5/2 270/5/2
f 267/5/2 268/5/2 271/5/2
f 271/5/2 268/5/2 272/5/2
f 273/5/2 274/5/2 277/5/2
f 277/5/2 274/5/2 278/5/2
f 275/5/2 276/5/2 279/5/2
f 279/5/2 276/5/2 280/5/2
f 284/5/3 282/5/3 281/5/3
f 285/5/3 282/5/3 284/5/3
f 288/5/3 284/5/3 283/5/3
f 288/5/3 286/5/3 285/5/3
f 288/5/3 285/5/3 284/5/3
f 289/5/3 286/5/3 288/5/3
f 292/5/3 288/5/3 287/5/3
f 292/5/3 290/5/3 289/5/3
f 292/5/3 289/5/3 288/5/3
f 293/5/3 290/5/3 292/5/3
f 296/5/3 292/5/3 291/5/3
f 296/5/3 294/5/3 293/5/3
f 296/5/3 293/5/3 292/5/3
f 297/5/3 294/5/3 296/5/3
f 299/5/3 296/5/3 295/5/3
f 299/5/3 298/5/3 297/5/3
f 299/5/3 297/5/3 296/5/3
f 300/5/3 298/5/3 299/5/3
f 301/5/3 298/5/3 300/5/3
f 302/5/3 298/5/3 301/5/3
f 303/5/3 301/5/3 300/5/3
f 304/5/3 301/5/3 303/5/3
f 305/5/3 301/5/3 304/5/3
f 306/5/3 301/5/3 305/5/3
f 307/5/3 305/5/3 304/5/3
f 308/5/3 305/5/3 307/5/3
f 309/5/3 305/5/3 308/5/3
f 310/5/3 305/5/3 309/5/3
f 311/5/3 309/5/3 308/5/3
f 312/5/3 309/5/3 311/5/3
f 313/5/3 309/5/3 312/5/3
f 314/5/3 309/5/3 313/5/3
f 315/5/3 313/5/3 312/5/3
f 316/5/3 313/5/3 315/5/3
f 320/5/3 318/5/3 317/5/3
f 321/5/3 318/5/3 320/5/3
f 324/5/3 320/5/3 319/5/3
f 324/5/3 322/5/3 321/5/3
f 324/5/3 321/5/3 320/5/3
f 325/5/3 322/5/3 324/5/3
f 328/5/3 324/5/3 323/5/3
f 328/5/3 326/5/3 325/5/3
f 328/5/3 325/5/3 324/5/3
f 329/5/3 326/5/3 328/5/3
f 330/5/3 326/5/3 329/5/3
f 331/5/3 326/5/3 330/5/3
f 333/5/3 328/5/3 327/5/3
f 333/5/3 329/5/3 328/5/3
f 334/5/3 329/5/3 333/5/3
f 335/5/3 332/5/3 331/5/3
f 335/5/3 331/5/3 330/5/3
f 336/5/3 332/5/3 335/5/3
f 338/5/3 333/5/3 327/5/3
f 339/5/3 332/5/3 336/5/3
f 341/5/3 338/5/3 337/5/3
f 341/5/3 333/5/3 338/5/3
f 342/5/3 333/5/3 341/5/3
f 343/5/3 340/5/3 339/5/3
f 343/5/3 339/5/3 336/5/3
f 344/5/3 340/5/3 343/5/3
f 345/5/3 341/5/3 337/5/3
f 348/5/3 340/5/3 344/5/3
f 349/5/3 346/5/3 345/5/3
f 349/5/3 345/5/3 337/5/3
f 350/5/3 346/5/3 349/5/3
f 351/5/3 348/5/3 347/5/3
f 351/5/3 340/5/3 348/5/3
f 352/5/3 340/5/3 351/5/3
f 353/5/3 346/5/3 350/5/3
f 356/5/3 351/5/3 347/5/3
f 357/5/3 354/5/3 353/5/3
f 357/5/3 353/5/3 350/5/3
f 358/5/3 354/5/3 357/5/3
f 359/5/3 354/5/3 358/5/3
f 360/5/3 356/5/3 355/5/3
f 361/5/3 351/5/3 356/5/3
f 361/5/3 356/5/3 360/5/3
f 362/5/3 351/5/3 361/5/3
f 363/5/3 359/5/3 358/5/3
f 363/5/3 360/5/3 359/5/3
f 363/5/3 361/5/3 360/5/3
f 364/5/3 361/5/3 363/5/3
f 365/5/3 361/5/3 364/5/3
f 366/5/3 361/5/3 365/5/3
f 367/5/3 365/5/3 364/5/3
f 368/5/3 365/5/3 367/5/3
f 369/5/3 365/5/3 368/5/3
f 370/5/3 365/5/3 369/5/3
f 371/5/3 369/5/3 368/5/3
f 372/5/3 369/5/3 371/5/3
f 373/5/4 374/5/4 376/5/4
f 376/5/4 374/5/4 377/5/4
f 375/5/4 376/5/4 380/5/4
f 377/5/4 378/5/4 380/5/4
f 376/5/4 377/5/4 380/5/4
f 380/5/4 378/5/4 381/5/4
f 379/5/4 380/5/4 384/5/4
f 381/5/4 382/5/4 384/5/4
f 380/5/4 381/5/4 384/5/4
f 384/5/4 382/5/4 385/5/4
f 385/5/4 382/5/4 386/5/4
f 386/5/4 382/5/4 387/5/4
f 383/5/4 384/5/4 389/5/4
f 384/5/4 385/5/4 389/5/4
f 389/5/4 385/5/4 390/5/4
f 387/5/4 388/5/4 391/5/4
f 386/5/4 387/5/4 391/5/4
f 391/5/4 388/5/4 392/5/4
f 383/5/4 389/5/4 394/5/4
f 392/5/4 388/5/4 395/5/4
f 393/5/4 394/5/4 397/5/4
f 394/5/4 389/5/4 397/5/4
f 397/5/4 389/5/4 398/5/4
f 395/5/4 396/5/4 399/5/4
f 392/5/4 395/5/4 399/5/4
f 399/5/4 396/5/4 400/5/4
f 393/5/4 397/5/4 401/5/4
f 400/5/4 396/5/4 404/5/4
f 401/5/4 402/5/4 405/5/4
f 393/5/4 401/5/4 405/5/4
f 405/5/4 402/5/4 406/5/4
f 403/5/4 404/5/4 407/5/4
f 404/5/4 396/5/4 407/5/4
f 407/5/4 396/5/4 408/5/4
f 406/5/4 402/5/4 409/5/4
f 403/5/4 407/5/4 412/5/4
f 409/5/4 410/5/4 413/5/4
f 406/5/4 409/5/4 413/5/4
f 413/5/4 410/5/4 414/5/4
f 414/5/4 410/5/4 415/5/4
f 411/5/4 412/5/4 416/5/4
f 412/5/4 407/5/4 417/5/4
f 416/5/4 412/5/4 417/5/4
f 417/5/4 407/5/4 418/5/4
f 414/5/4 415/5/4 419/5/4
f 415/5/4 416/5/4 419/5/4
f 416/5/4 417/5/4 419/5/4
f 419/5/4 417/5/4 420/5/4
f 420/5/4 417/5/4 421/5/4
f 421/5/4 417/5/4 422/5/4
f 420/5/4 421/5/4 423/5/4
f 423/5/4 421/5/4 424/5/4
f 424/5/4 421/5/4 425/5/4
f 425/5/4 421/5/4 426/5/4
f 424/5/4 425/5/4 427/5/4
f 427/5/4 425/5/4 428/5/4
f 429/5/4 430/5/4 432/5/4
f 432/5/4 430/5/4 433/5/4
f 431/5/4 432/5/4 436/5/4
f 433/5/4 434/5/4 436/5/4
f 432/5/4 433/5/4 436/5/4
f 436/5/4 434/5/4 437/5/4
f 437/5/4 434/5/4 438/5/4
f 438/5/4 434/5/4 439/5/4
f 435/5/4 436/5/4 441/5/4
f 436/5/4 437/5/4 441/5/4
f 441/5/4 437/5/4 442/5/4
f 439/5/4 440/5/4 443/5/4
f 438/5/4 439/5/4 443/5/4
f 443/5/4 440/5/4 444/5/4
f 435/5/4 441/5/4 446/5/4
f 446/5/4 441/5/4 447/5/4
f 447/5/4 441/5/4 448/5/4
f 444/5/4 440/5/4 449/5/4
f 449/5/4 440/5/4 450/5/4
f 450/5/4 440/5/4 451/5/4
f 445/5/4 446/5/4 453/5/4
f 446/5/4 447/5/4 453/5/4
f 453/5/4 447/5/4 454/5/4
f 454/5/4 447/5/4 455/5/4
f 451/5/4 452/5/4 458/5/4
f 450/5/4 451/5/4 458/5/4
f 458/5/4 452/5/4 459/5/4
f 459/5/4 452/5/4 460/5/4
f 455/5/4 456/5/4 461/5/4
f 454/5/4 455/5/4 461/5/4
f 458/5/4 459/5/4 464/5/4
f 457/5/4 458/5/4 464/5/4
f 461/5/4 462/5/4 465/5/4
f 454/5/4 461/5/4 465/5/4
f 465/5/4 462/5/4 466/5/4
f 466/5/4 462/5/4 467/5/4
f 463/5/4 464/5/4 468/5/4
f 464/5/4 459/5/4 469/5/4
f 468/5/4 464/5/4 469/5/4
f 469/5/4 459/5/4 470/5/4
f 466/5/4 467/5/4 471/5/4
f 467/5/4 468/5/4 471/5/4
f 468/5/4 469/5/4 471/5/4
f 471/5/4 469/5/4 472/5/4
f 472/5/4 469/5/4 473/5/4
f 473/5/4 469/5/4 474/5/4
f 472/5/4 473/5/4 475/5/4
f 475/5/4 473/5/4 476/5/4
f 477/5/4 478/5/4 480/5/4
f 480/5/4 478/5/4 481/5/4
f 479/5/4 480/5/4 484/5/4
f 481/5/4 482/5/4 484/5/4
f 480/5/4 481/5/4 484/5/4
f 484/5/4 482/5/4 485/5/4
f 485/5/4 482/5/4 486/5/4
f 486/5/4 482/5/4 487/5/4
f 483/5/4 484/5/4 490/5/4
f 484/5/4 485/5/4 490/5/4
f 490/5/4 485/5/4 491/5/4
f 491/5/4 485/5/4 492/5/4
f 486/5/4 487/5/4 493/5/4
f 487/5/4 488/5/4 493/5/4
f 493/5/4 488/5/4 494/5/4
f 494/5/4 488/5/4 495/5/4
f 490/5/4 491/5/4 497/5/4
f 489/5/4 490/5/4 497/5/4
f 497/5/4 491/5/4 498/5/4
f 495/5/4 496/5/4 501/5/4
f 494/5/4 495/5/4 501/5/4
f 501/5/4 496/5/4 502/5/4
f 489/5/4 497/5/4 504/5/4
f 499/5/4 500/5/4 506/5/4
f 506/5/4 500/5/4 507/5/4
f 502/5/4 496/5/4 509/5/4
f 503/5/4 504/5/4 511/5/4
f 504/5/4 497/5/4 511/5/4
f 511/5/4 497/5/4 512/5/4
f 507/5/4 508/5/4 514/5/4
f 505/5/4 506/5/4 514/5/4
f 506/5/4 507/5/4 514/5/4
f 514/5/4 508/5/4 515/5/4
f 515/5/4 508/5/4 516/5/4
f 516/5/4 508/5/4 517/5/4
f 517/5/4 508/5/4 518/5/4
f 509/5/4 510/5/4 520/5/4
f 502/5/4 509/5/4 520/5/4
f 520/5/4 510/5/4 521/5/4
f 513/5/4 514/5/4 522/5/4
f 514/5/4 515/5/4 522/5/4
f 515/1/4 516/1/4 522/1/4
f 516/4/4 517/4/4 523/4/4
f 522/1/4 516/1/4 523/1/4
f 518/5/4 519/5/4 524/5/4
f 523/4/4 517/4/4 524/4/4
f 517/5/4 518/5/4 524/5/4
f 503/5/4 511/5/4 525/5/4
f 513/5/4 522/5/4 527/5/4
f 527/5/4 522/5/4 528/5/4
f 522/2/4 523/2/4 529/2/4
f 528/5/4 522/5/4 529/5/4
f 523/3/4 524/3/4 530/3/4
f 529/2/4 523/2/4 530/2/4
f 524/5/4 519/5/4 531/5/4
f 530/3/4 524/3/4 531/3/4
f 531/5/4 519/5/4 532/5/4
f 532/5/4 519/5/4 533/5/4
f 521/5/4 510/5/4 535/5/4
f 525/5/4 526/5/4 536/5/4
f 503/5/4 525/5/4 536/5/4
f 536/5/4 526/5/4 537/5/4
f 529/5/4 530/5/4 538/5/4
f 528/5/4 529/5/4 538/5/4
f 531/5/4 532/5/4 538/5/4
f 530/5/4 531/5/4 538/5/4
f 538/5/4 532/5/4 539/5/4
f 539/5/4 532/5/4 540/5/4
f 540/5/4 532/5/4 541/5/4
f 534/5/4 535/5/4 542/5/4
f 535/5/4 510/5/4 542/5/4
f 542/5/4 510/5/4 543/5/4
f 537/5/4 526/5/4 544/5/4
f 539/5/4 540/5/4 546/5/4
f 546/5/4 540/5/4 547/5/4
f 534/5/4 542/5/4 549/5/4
f 544/5/4 545/5/4 550/5/4
f 537/5/4 544/5/4 550/5/4
f 550/5/4 545/5/4 551/5/4
f 551/5/4 545/5/4 552/5/4
f 548/5/4 549/5/4 555/5/4
f 549/5/4 542/5/4 556/5/4
f 555/5/4 549/5/4 556/5/4
f 556/5/4 542/5/4 557/5/4
f 552/5/4 553/5/4 558/5/4
f 551/5/4 552/5/4 558/5/4
f 558/5/4 553/5/4 559/5/4
f 559/5/4 553/5/4 560/5/4
f 554/5/4 555/5/4 561/5/4
f 555/5/4 556/5/4 561/5/4
f 561/5/4 556/5/4 562/5/4
f 562/5/4 556/5/4 563/5/4
f 559/5/4 560/5/4 564/5/4
f 561/5/4 562/5/4 564/5/4
f 560/5/4 561/5/4 564/5/4
f 564/5/4 562/5/4 565/5/4
f 565/5/4 562/5/4 566/5/4
f 566/5/4 562/5/4 567/5/4
f 565/5/4 566/5/4 568/5/4
f 568/5/4 566/5/4 569/5/4
f 572/5/5 571/5/5 570/5/5
f 573/5/5 571/5/5 572/5/5
f 576/5/5 575/5/5 574/5/5
f 577/5/5 575/5/5 576/5/5
f 582/5/5 579/5/5 578/5/5
f 583/5/5 579/5/5 582/5/5
f 584/5/5 581/5/5 580/5/5
f 585/5/5 581/5/5 584/5/5
f 590/5/5 587/5/5 586/5/5
f 591/5/5 587/5/5 590/5/5
f 592/5/5 589/5/5 588/5/5
f 593/5/5 589/5/5 592/5/5
f 598/5/5 595/5/5 594/5/5
f 599/5/5 595/5/5 598/5/5
f 600/5/5 597/5/5 596/5/5
f 601/5/5 597/5/5 600/5/5
f 606/5/5 603/5/5 602/5/5
f 607/5/5 603/5/5 606/5/5
f 608/5/5 605/5/5 604/5/5
f 609/5/5 605/5/5 608/5/5
f 614/5/5 611/5/5 610/5/5
f 615/5/5 611/5/5 614/5/5
f 618/5/5 613/5/5 612/5/5
f 619/5/5 613/5/5 618/5/5
f 622/5/5 617/5/5 616/5/5
f 623/5/5 617/5/5 622/5/5
f 626/5/5 621/5/5 620/5/5
f 627/5/5 621/5/5 626/5/5
f 628/5/5 625/5/5 624/5/5
f 629/5/5 625/5/5 628/5/5
f 634/1/5 631/1/5 630/1/5
f 635/1/5 631/1/5 634/1/5
f 636/2/5 633/2/5 632/2/5
f 637/2/5 633/2/5 636/2/5
f 640/5/5 639/5/5 638/5/5
f 641/5/5 639/5/5 640/5/5
f 646/5/5 643/5/5 642/5/5
f 647/5/5 643/5/5 646/5/5
f 648/5/5 645/5/5 644/5/5
f 649/5/5 645/5/5 648/5/5
f 658/5/5 651/5/5 650/5/5
f 659/5/5 651/5/5 658/5/5
f 660/5/5 655/5/5 654/5/5
f 661/5/5 655/5/5 660/5/5
f 662/5/5 657/5/5 656/5/5
f 663/5/5 657/5/5 662/5/5
f 664/5/5 653/5/5 652/5/5
f 665/5/5 653/5/5 664/5/5
f 670/5/5 667/5/5 666/5/5
f 671/5/5 667/5/5 670/5/5
f 672/5/5 669/5/5 668/5/5
f 673/5/5 669/5/5 672/5/5
f 678/5/5 675/5/5 674/5/5
f 679/5/5 675/5/5 678/5/5
f 680/5/5 677/5/5 676/5/5
f 681/5/5 677/5/5 680/5/5
f 686/5/5 683/5/5 682/5/5
f 687/5/5 683/5/5 686/5/5
f 688/5/5 685/5/5 684/5/5
f 689/5/5 685/5/5 688/5/5
f 694/5/5 691/5/5 690/5/5
f 695/5/5 691/5/5 694/5/5
f 696/5/5 693/5/5 692/5/5
f 697/5/5 693/5/5 696/5/5
f 702/5/5 699/5/5 698/5/5
f 703/5/5 699/5/5 702/5/5
f 704/5/5 701/5/5 700/5/5
f 705/5/5 701/5/5 704/5/5
f 708/5/5 707/5/5 706/5/5
f 709/5/5 707/5/5 708/5/5
f 710/5/6 711/5/6 712/5/6
f 712/5/6 711/5/6 713/5/6
f 714/5/6 715/5/6 718/5/6
f 718/5/6 715/5/6 719/5/6
f 716/5/6 717/5/6 720/5/6
f 720/5/6 717/5/6 721/5/6
f 722/5/6 723/5/6 726/5/6
f 726/5/6 723/5/6 727/5/6
f 724/5/6 725/5/6 728/5/6
f 728/5/6 725/5/6 729/5/6
f 730/5/6 731/5/6 734/5/6
f 734/5/6 731/5/6 735/5/6
f 732/5/6 733/5/6 736/5/6
f 736/5/6 733/5/6 737/5/6
f 738/5/6 739/5/6 742/5/6
f 742/5/6 739/5/6 743/5/6
f 740/5/6 741/5/6 744/5/6
f 744/5/6 741/5/6 745/5/6
f 746/5/6 747/5/6 750/5/6
f 750/5/6 747/5/6 751/5/6
f 748/5/6 749/5/6 752/5/6
f 752/5/6 749/5/6 753/5/6
f 754/5/6 755/5/6 758/5/6
f 758/5/6 755/5/6 759/5/6
f 756/5/6 757/5/6 760/5/6
f 760/5/6 757/5/6 761/5/6
f 762/5/6 763/5/6 770/5/6
f 770/5/6 763/5/6 771/5/6
f 766/5/6 767/5/6 772/5/6
f 772/5/6 767/5/6 773/5/6
f 768/5/6 769/5/6 774/5/6
f 774/5/6 769/5/6 775/5/6
f 764/5/6 765/5/6 776/5/6
f 776/5/6 765/5/6 777/5/6
f 778/4/6 779/4/6 782/4/6
f 782/4/6 779/4/6 783/4/6
f 780/3/6 781/3/6 784/3/6
f 784/3/6 781/3/6 785/3/6
f 786/5/6 787/5/6 788/5/6
f 788/5/6 787/5/6 789/5/6
f 790/5/6 791/5/6 794/5/6
f 794/5/6 791/5/6 795/5/6
f 792/5/6 793/5/6 798/5/6
f 798/5/6 793/5/6 799/5/6
f 796/5/6 797/5/6 802/5/6
f 802/5/6 797/5/6 803/5/6
f 800/5/6 801/5/6 806/5/6
f 806/5/6 801/5/6 807/5/6
f 804/5/6 805/5/6 808/5/6
f 808/5/6 805/5/6 809/5/6
f 810/5/6 811/5/6 814/5/6
f 814/5/6 811/5/6 815/5/6
f 812/5/6 813/5/6 816/5/6
f 816/5/6 813/5/6 817/5/6
f 818/5/6 819/5/6 822/5/6
f 822/5/6 819/5/6 823/5/6
f 820/5/6 821/5/6 824/5/6
f 824/5/6 821/5/6 825/5/6
f 826/5/6 827/5/6 830/5/6
f 830/5/6 827/5/6 831/5/6
f 828/5/6 829/5/6 832/5/6
f 832/5/6 829/5/6 833/5/6
f 834/5/6 835/5/6 838/5/6
f 838/5/6 835/5/6 839/5/6
f 836/5/6 837/5/6 840/5/6
f 840/5/6 837/5/6 841/5/6
f 842/5/6 843/5/6 844/5/6
f 844/5/6 843/5/6 845/5/6
f 846/5/6 847/5/6 848/5/6
f 848/5/6 847/5/6 849/5/6
