# MagicaVoxel @ Ephtracy

# group
g Снайперская винтовка-2

# material
mtllib Снайперская винтовка-2.mtl
usemtl palette

# normals
vn -1 0 0
vn 1 0 0
vn 0 0 1
vn 0 0 -1
vn 0 -1 0
vn 0 1 0

# texcoords
vt 0.845703 0.5
vt 0.849609 0.5
vt 0.853516 0.5
vt 0.857422 0.5
vt 0.861328 0.5
vt 0.865234 0.5
vt 0.869141 0.5
vt 0.873047 0.5

# verts
v -1 0 4
v -1 0 3
v -1 0 2
v -1 0 1
v -1 0 -0
v -1 0 -1
v -1 0 -2
v -1 0 -3
v -1 0 -4
v -1 2 4
v -1 2 3
v -1 2 2
v -1 2 1
v -1 2 -0
v -1 2 -1
v -1 2 -2
v -1 2 -3
v -1 2 -4
v 1 0 4
v 1 0 3
v 1 0 2
v 1 0 1
v 1 0 -0
v 1 0 -1
v 1 0 -2
v 1 0 -3
v 1 0 -4
v 1 2 4
v 1 2 3
v 1 2 2
v 1 2 1
v 1 2 -0
v 1 2 -1
v 1 2 -2
v 1 2 -3
v 1 2 -4
v -1 0 4
v -1 2 4
v 1 0 4
v 1 2 4
v -1 0 -4
v -1 2 -4
v 1 0 -4
v 1 2 -4
v -1 0 4
v 1 0 4
v -1 0 3
v 1 0 3
v -1 0 2
v 1 0 2
v -1 0 1
v 1 0 1
v -1 0 -0
v 1 0 -0
v -1 0 -1
v 1 0 -1
v -1 0 -2
v 1 0 -2
v -1 0 -3
v 1 0 -3
v -1 0 -4
v 1 0 -4
v -1 2 4
v 1 2 4
v -1 2 3
v 1 2 3
v -1 2 2
v 1 2 2
v -1 2 1
v 1 2 1
v -1 2 -0
v 1 2 -0
v -1 2 -1
v 1 2 -1
v -1 2 -2
v 1 2 -2
v -1 2 -3
v 1 2 -3
v -1 2 -4
v 1 2 -4

# faces
f 10/1/1 2/1/1 1/1/1
f 11/2/1 3/2/1 2/2/1
f 11/1/1 2/1/1 10/1/1
f 12/3/1 4/3/1 3/3/1
f 12/2/1 3/2/1 11/2/1
f 13/4/1 5/4/1 4/4/1
f 13/3/1 4/3/1 12/3/1
f 14/5/1 6/5/1 5/5/1
f 14/4/1 5/4/1 13/4/1
f 15/6/1 7/6/1 6/6/1
f 15/5/1 6/5/1 14/5/1
f 16/7/1 8/7/1 7/7/1
f 16/6/1 7/6/1 15/6/1
f 17/8/1 9/8/1 8/8/1
f 17/7/1 8/7/1 16/7/1
f 18/8/1 9/8/1 17/8/1
f 19/1/2 20/1/2 28/1/2
f 20/2/2 21/2/2 29/2/2
f 28/1/2 20/1/2 29/1/2
f 21/3/2 22/3/2 30/3/2
f 29/2/2 21/2/2 30/2/2
f 22/4/2 23/4/2 31/4/2
f 30/3/2 22/3/2 31/3/2
f 23/5/2 24/5/2 32/5/2
f 31/4/2 23/4/2 32/4/2
f 24/6/2 25/6/2 33/6/2
f 32/5/2 24/5/2 33/5/2
f 25/7/2 26/7/2 34/7/2
f 33/6/2 25/6/2 34/6/2
f 26/8/2 27/8/2 35/8/2
f 34/7/2 26/7/2 35/7/2
f 35/8/2 27/8/2 36/8/2
f 39/1/3 38/1/3 37/1/3
f 40/1/3 38/1/3 39/1/3
f 41/8/4 42/8/4 43/8/4
f 43/8/4 42/8/4 44/8/4
f 47/1/5 46/1/5 45/1/5
f 48/1/5 46/1/5 47/1/5
f 49/2/5 48/2/5 47/2/5
f 50/2/5 48/2/5 49/2/5
f 51/3/5 50/3/5 49/3/5
f 52/3/5 50/3/5 51/3/5
f 53/4/5 52/4/5 51/4/5
f 54/4/5 52/4/5 53/4/5
f 55/5/5 54/5/5 53/5/5
f 56/5/5 54/5/5 55/5/5
f 57/6/5 56/6/5 55/6/5
f 58/6/5 56/6/5 57/6/5
f 59/7/5 58/7/5 57/7/5
f 60/7/5 58/7/5 59/7/5
f 61/8/5 60/8/5 59/8/5
f 62/8/5 60/8/5 61/8/5
f 63/1/6 64/1/6 65/1/6
f 65/1/6 64/1/6 66/1/6
f 65/2/6 66/2/6 67/2/6
f 67/2/6 66/2/6 68/2/6
f 67/3/6 68/3/6 69/3/6
f 69/3/6 68/3/6 70/3/6
f 69/4/6 70/4/6 71/4/6
f 71/4/6 70/4/6 72/4/6
f 71/5/6 72/5/6 73/5/6
f 73/5/6 72/5/6 74/5/6
f 73/6/6 74/6/6 75/6/6
f 75/6/6 74/6/6 76/6/6
f 75/7/6 76/7/6 77/7/6
f 77/7/6 76/7/6 78/7/6
f 77/8/6 78/8/6 79/8/6
f 79/8/6 78/8/6 80/8/6
